<?xml version="1.0" standalone="no"?><!DOCTYPE svg PUBLIC "-//W3C//DTD SVG 1.1//EN" "http://www.w3.org/Graphics/SVG/1.1/DTD/svg11.dtd"><svg t="1613378876467" class="icon" viewBox="0 0 1024 1024" version="1.1" xmlns="http://www.w3.org/2000/svg" p-id="20115" xmlns:xlink="http://www.w3.org/1999/xlink" width="200" height="200"><defs><style type="text/css"></style></defs><path d="M149.3 420.7l-8.6-11 363.8-281.4 363.9 278.8-8.5 11.1L504.6 146z" fill="#0F13AE" p-id="20116"></path><path d="M212.1 206.6l580.7 2-1 248.8-211.2 150.4-159.1-0.1-210.4-148.4zM211.3 264.8h583" fill="#B6F5FF" p-id="20117"></path><path d="M211.3 257.8h583v14h-583z" fill="#49A3FE" p-id="20118"></path><path d="M294.9 268.5v247.1" fill="#B6F5FF" p-id="20119"></path><path d="M287.9 268.5h14v247.1h-14z" fill="#49A3FE" p-id="20120"></path><path d="M669.1 240.1v-15.9" fill="#B6F5FF" p-id="20121"></path><path d="M662.1 224.2h14v15.9h-14z" fill="#0F13AE" p-id="20122"></path><path d="M711.4 240.1v-15.9" fill="#B6F5FF" p-id="20123"></path><path d="M704.4 224.2h14v15.9h-14z" fill="#0F13AE" p-id="20124"></path><path d="M753.8 240.1v-15.9" fill="#B6F5FF" p-id="20125"></path><path d="M746.8 224.2h14v15.9h-14z" fill="#0F13AE" p-id="20126"></path><path d="M509.4 561.5c-67.5 0-122.3-53.1-122.3-118.4S442 324.7 509.4 324.7s122.3 53.1 122.3 118.4-54.8 118.4-122.3 118.4z m0-222.8c-59.7 0-108.3 46.8-108.3 104.4s48.6 104.4 108.3 104.4 108.3-46.8 108.3-104.4-48.6-104.4-108.3-104.4z" fill="#0F13AE" p-id="20127"></path><path d="M509.2 515.8c-41.1 0-74.6-32.4-74.6-72.3s33.5-72.3 74.6-72.3c23 0 44.4 10.1 58.7 27.8l1.6 1.9v85.2l-1.6 1.9c-14.3 17.7-35.7 27.8-58.7 27.8z m0-130.6c-33.4 0-60.6 26.2-60.6 58.3s27.2 58.3 60.6 58.3c18 0 34.7-7.5 46.3-20.7V406c-11.6-13.2-28.4-20.8-46.3-20.8z" fill="#0F13AE" p-id="20128"></path><path d="M584.2 519.9c-2.7 0-5.5-0.4-8.6-1.3-16.5-4.8-20.4-21.3-20.1-29.5v-12h14v12.4c0 1.3 0 12.8 10.1 15.7 8.6 2.5 13.3-1.5 23-10.6 1.1-1 2.2-2 3.3-3.1l9.5 10.3c-1.1 1-2.2 2-3.2 3-8.1 7.5-16.3 15.1-28 15.1z" fill="#0F13AE" p-id="20129"></path><path d="M795.2 457.7l-14-0.1 1-243-566.7-2-1 243.7-14-0.1 1-257.6 594.7 2z" fill="#0F13AE" p-id="20130"></path><path d="M863.5 815.7H138.3V409h14v392.7h697.2V409h14z" fill="#0F13AE" p-id="20131"></path><path d="M149.3 815.3l-8.1-11.4 277.6-195-277.5-193.2 8-11.5 294 204.6z" fill="#0F13AE" p-id="20132"></path><path d="M852.5 813.1L559.2 608l293.3-206.1 8 11.5-276.9 194.5 276.9 193.7z" fill="#0F13AE" p-id="20133"></path><path d="M604 730h57" fill="#FFFFFF" p-id="20134"></path><path d="M604 723h57v14h-57z" fill="#0F13AE" p-id="20135"></path><path d="M604 760.1h57" fill="#FFFFFF" p-id="20136"></path><path d="M604 753.1h57v14h-57z" fill="#0F13AE" p-id="20137"></path><path d="M431 601.9h140.3v14H431z" fill="#0F13AE" p-id="20138"></path></svg>